<svg width="10" height="17" viewBox="0 0 10 17" fill="none" xmlns="http://www.w3.org/2000/svg">
<path d="M8.8373 0H1.1627C0.523313 0 0 0.516314 0 1.14823V15.8513C0 16.4832 0.523313 17 1.1627 17H8.8373C9.47669 17 10 16.4842 10 15.8518V1.14823C10 0.516314 9.47669 0 8.8373 0ZM3.77238 0.827657H6.22762C6.30533 0.827657 6.36829 0.889829 6.36829 0.967057C6.36829 1.0438 6.30533 1.10597 6.22762 1.10597H3.77238C3.69467 1.10597 3.63171 1.0438 3.63171 0.967057C3.63171 0.889829 3.69467 0.827657 3.77238 0.827657ZM5 16.4259C4.67883 16.4259 4.41865 16.1689 4.41865 15.8513C4.41865 15.5336 4.67883 15.2772 5 15.2772C5.32117 15.2772 5.58135 15.5336 5.58135 15.8513C5.58135 16.1689 5.32117 16.4259 5 16.4259ZM9.19093 14.875H0.809069V1.82094H9.19093V14.875Z" fill="#005FA3"/>
</svg>
