<svg width="36" height="36" viewBox="0 0 36 36" fill="none" xmlns="http://www.w3.org/2000/svg">
<g clip-path="url(#clip0)">
<path d="M35.6449 17.1867L32.6646 13.2473L32.7607 8.30785C32.7731 7.67833 32.3652 7.11748 31.7623 6.93483L27.0341 5.50276L24.2128 1.44716C23.8527 0.929427 23.1922 0.714644 22.5961 0.922011L17.9297 2.54579L13.263 0.922011C12.6675 0.714919 12.0067 0.929153 11.6466 1.44716L8.82533 5.50276L4.09708 6.93483C3.49421 7.11748 3.08634 7.67833 3.0987 8.30785L3.19483 13.2473L0.214516 17.1867C-0.165337 17.6885 -0.165337 18.3818 0.214516 18.8836L3.19483 22.823L3.0987 27.7624C3.08634 28.392 3.49421 28.9531 4.09708 29.1355L8.82533 30.5678L11.6466 34.6231C12.0067 35.1409 12.6672 35.3556 13.263 35.1483L17.9297 33.5245L22.5964 35.1483C23.1919 35.3554 23.8527 35.1411 24.2128 34.6231L27.0341 30.5675L31.7623 29.1355C32.3652 28.9528 32.7731 28.392 32.7607 27.7624L32.6646 22.823L35.6449 18.8836C36.0247 18.3818 36.0247 17.6885 35.6449 17.1867ZM30.1278 21.5145C29.9375 21.7664 29.8372 22.0748 29.8433 22.3904L29.9281 26.7525L25.7511 28.0176C25.4482 28.1093 25.1851 28.3005 25.0043 28.5603L22.5132 32.1416L18.3919 30.7076C18.0926 30.6032 17.7668 30.6032 17.4674 30.7076L13.3462 32.1416L10.8551 28.5603C10.6743 28.3005 10.4112 28.1093 10.1083 28.0176L5.93125 26.7525L6.01612 22.3904C6.02216 22.0748 5.92191 21.7664 5.73158 21.5148L3.09925 18.0351L5.73158 14.5558C5.92219 14.3039 6.02244 13.9955 6.01612 13.6799L5.93125 9.31777L10.1083 8.05269C10.4112 7.96096 10.6743 7.76979 10.8551 7.50997L13.3462 3.9287L17.4677 5.36269C17.7668 5.46678 18.0926 5.46678 18.3919 5.36269L22.5132 3.9287L25.0046 7.50997C25.1853 7.76952 25.4485 7.96096 25.7511 8.05269L29.9281 9.31777L29.8433 13.6799C29.8372 13.9955 29.9375 14.3039 30.1278 14.5555L32.7601 18.0351L30.1278 21.5145ZM25.1669 12.879C25.716 13.428 25.716 14.3185 25.1669 14.8678L16.8432 23.1913C16.2952 23.7393 15.4042 23.7412 14.8544 23.1913L10.6925 19.0297C10.1434 18.4804 10.1434 17.5899 10.6925 17.0409C11.2418 16.4916 12.1322 16.4916 12.6813 17.0409L15.8489 20.2082L23.1781 12.879C23.7272 12.3297 24.6176 12.3297 25.1669 12.879Z" fill="#005FA3" stroke="white" stroke-width="0.3"/>
</g>
<defs>
<clipPath id="clip0">
<rect width="36" height="36" fill="white"/>
</clipPath>
</defs>
</svg>
